<?xml version="1.0" encoding="utf-8"?>
<!-- Generator: Adobe Illustrator 16.0.0, SVG Export Plug-In . SVG Version: 6.00 Build 0)  -->
<!DOCTYPE svg PUBLIC "-//W3C//DTD SVG 1.1//EN" "http://www.w3.org/Graphics/SVG/1.1/DTD/svg11.dtd">
<svg version="1.1" id="Table_xA0_Image_1_" xmlns="http://www.w3.org/2000/svg" xmlns:xlink="http://www.w3.org/1999/xlink" x="0px"
	 y="0px" width="1417.439px" height="1417.439px" viewBox="0 0 1417.439 1417.439" enable-background="new 0 0 1417.439 1417.439"
	 xml:space="preserve">
<g>
	<g>
		<path fill-rule="evenodd" clip-rule="evenodd" d="M1136.399,710.159c0,0.641,0,1.28,0,1.92c-0.12,0.842-0.349,1.684-0.345,2.523
			c0.05,11.819-0.15,23.628-1.498,35.386c-0.988,8.628-1.769,17.29-3.113,25.862c-2.386,15.203-5.453,30.259-9.714,45.09
			c-5.209,18.133-11.094,36.002-18.357,53.415c-5.786,13.872-12.326,27.383-19.537,40.563c-8.6,15.718-18.223,30.796-28.732,45.311
			c-12.293,16.979-25.811,32.921-40.444,47.915c-4.63,4.744-9.386,9.384-14.315,13.815c-7.477,6.721-15.015,13.389-22.779,19.771
			c-13.779,11.328-28.415,21.477-43.578,30.877c-16.187,10.035-33.002,18.881-50.378,26.639
			c-25.586,11.422-52.064,20.218-79.4,26.397c-14.32,3.237-28.764,5.783-43.352,7.458c-5.063,0.581-10.143,1.044-15.223,1.469
			c-5.715,0.478-11.432,0.974-17.158,1.23c-5.108,0.229-10.231,0.13-15.347,0.214c-0.671,0.011-1.339,0.25-2.008,0.384
			c-0.641,0-1.28,0-1.92,0c-0.509-0.134-1.016-0.37-1.528-0.385c-6.464-0.184-12.934-0.212-19.391-0.53
			c-6.443-0.317-12.873-0.895-19.306-1.397c-9.859-0.771-19.627-2.239-29.38-3.842c-19.479-3.203-38.619-7.836-57.436-13.768
			c-26.118-8.233-51.214-18.903-75.291-31.968c-20.126-10.921-39.236-23.393-57.361-37.379
			c-13.351-10.304-26.016-21.398-38.069-33.188c-3.141-3.072-6.185-6.247-9.196-9.447c-4.212-4.477-8.455-8.932-12.503-13.555
			c-10.053-11.482-19.476-23.462-28.264-35.949c-14.661-20.836-27.323-42.82-38.052-65.912
			c-10.248-22.057-18.494-44.854-24.827-68.34c-0.64-2.375-1.234-4.762-1.932-7.459c1.156,0,2.018,0,2.879,0
			c8.958,0,17.916,0.008,26.874-0.007c2.031-0.003,2.368-0.327,2.533-2.302c0.186-2.223,0.319-4.451,0.503-6.674
			c0.276-3.332,0.493-6.673,0.896-9.99c0.252-2.071,0.417-2.109,2.401-2.142c7.427-0.119,14.854-0.227,22.281-0.324
			c5.036-0.066,10.072-0.095,15.107-0.172c1.759-0.026,1.93-0.229,2.016-1.908c0.057-1.116,0.139-2.233,0.143-3.351
			c0.009-2.437-0.554-4.564-2.939-5.857c-0.819-0.444-1.473-1.213-2.161-1.876c-4.833-4.658-9.599-9.386-14.494-13.977
			c-5.334-5.001-8.844-10.908-9.344-18.308c-0.306-4.534-0.303-9.088-0.496-13.631c-0.074-1.748-0.24-3.498-0.48-5.23
			c-0.253-1.826-1.3-3.008-3.127-3.528c-2.927-0.833-5.863-1.488-8.94-1.458c-8.954,0.091-17.91,0.097-26.864,0.185
			c-3.269,0.032-6.543,0.395-9.802,0.267c-6.19-0.242-7.66-2.44-9.125-7.086c-0.096-0.303-0.114-0.63-0.186-0.94
			c-0.297-1.285-0.601-2.567-0.902-3.852c0-0.8,0-1.6,0-2.4c0.144-0.511,0.396-1.019,0.416-1.535
			c0.178-4.459,0.237-8.923,0.481-13.378c0.415-7.56,0.79-15.127,1.458-22.667c0.661-7.458,1.518-14.906,2.547-22.323
			c1.864-13.439,4.483-26.747,7.717-39.922c4.707-19.176,10.7-37.949,17.985-56.306c6.727-16.951,14.447-33.443,23.41-49.317
			c5.299-9.385,11.141-18.463,16.725-27.688c0.698-1.154,1.514-1.899,2.997-2.011c5.242-0.395,10.475-0.912,15.71-1.398
			c10.313-0.958,20.62-1.972,30.937-2.874c8.175-0.714,16.362-1.3,24.544-1.934c8.66-0.671,17.32-1.338,25.981-1.992
			c6.437-0.486,12.873-0.971,19.313-1.412c3.659-0.251,7.329-0.362,10.987-0.629c5.163-0.377,10.32-0.841,15.479-1.265
			c4.687-0.386,9.374-0.762,14.061-1.154c4.841-0.404,9.677-0.875,14.522-1.217c3.977-0.281,7.966-0.383,11.946-0.627
			c3.815-0.234,7.623-0.619,11.439-0.814c5.163-0.264,7.904,2.699,8.372,7.232c0.572,5.545,1.149,11.091,1.779,16.63
			c1.251,11.003,2.583,21.997,3.799,33.003c1.181,10.69,2.271,21.39,3.379,32.088c0.977,9.43,1.901,18.865,2.888,28.293
			c1.095,10.459,2.289,20.908,3.338,31.371c1.042,10.385,1.947,20.783,2.933,31.173c0.512,5.395,1.053,10.787,1.608,16.177
			c0.914,8.875,1.847,17.748,2.779,26.621c0.583,5.545,1.229,11.083,1.753,16.634c0.419,4.442,0.852,8.893,0.995,13.349
			c0.167,5.228-2.08,7.962-7.188,8.77c-3.534,0.558-7.126,0.877-10.703,1.001c-4.788,0.166-9.586-0.003-14.379,0.05
			c-12.226,0.134-24.451,0.314-36.677,0.469c-5.037,0.063-10.073,0.135-15.11,0.155c-13.818,0.055-27.631-0.053-41.446,0.731
			c-9.644,0.548-19.327,0.419-28.992,0.547c-7.116,0.095-14.236,0.032-21.35,0.199c-4.217,0.099-8.435,0.42-12.638,0.805
			c-3.556,0.326-5.766,2.367-6.258,5.874c-0.387,2.754-0.524,5.559-0.553,8.343c-0.061,5.991,1.643,11.495,4.947,16.496
			c1.997,3.022,4.581,5.499,7.186,7.994c4.795,4.592,9.462,9.318,14.102,14.067c4.793,4.905,10.272,8.808,16.299,12.068
			c4.835,2.615,9.827,3.82,15.346,3.813c60.159-0.081,120.319-0.036,180.479-0.067c8.868-0.004,17.714,0.173,26.552,1.021
			c6.979,0.669,13.981,1.14,20.983,1.502c2.242,0.116,3.742,0.831,4.863,2.786c2.701,4.712,5.646,9.287,8.243,14.055
			c1.172,2.153,2.614,2.781,4.969,2.778c45.359-0.061,90.719-0.045,136.079-0.045c0.479,0,0.969-0.06,1.438,0.011
			c1.097,0.163,1.835-0.389,2.477-1.15c2.259-2.684,3.189-5.665,2.049-9.12c-0.615-1.861-1.654-3.434-3.044-4.809
			c-2.932-2.9-3.522-6.318-2.129-10.133c0.273-0.748,0.586-1.487,0.935-2.203c2.181-4.479,5.032-8.53,8.047-12.468
			c7.334-9.58,14.808-19.059,21.073-29.404c3.563-5.883,7.132-11.772,8.442-18.662c0.335-1.764,0.67-3.414,2.499-4.179
			c-0.689-1.565-0.699-1.624-2.496-1.329c-6.398,1.049-12.82,1.725-19.318,1.388c-3.04-0.157-6.073-0.417-8.89-1.666
			c-3.526-1.563-4.324-3.934-2.582-7.381c0.72-1.424,1.522-2.807,2.225-4.239c0.918-1.873,0.642-3.656-0.9-5.021
			c-1.24-1.097-2.665-2.008-4.089-2.867c-1.158-0.698-2.469-1.137-3.654-1.794c-2.706-1.501-3.488-3.684-2.143-6.431
			c0.693-1.415,1.605-2.79,2.681-3.938c2.065-2.205,4.317-4.235,6.534-6.378c-0.279-0.19-0.591-0.436-0.932-0.628
			c-24.866-14.023-49.707-28.092-74.647-41.981c-2.282-1.271-5.191-1.448-7.836-2.006c-0.538-0.114-1.26,0.238-1.791,0.553
			c-3.552,2.112-7.162,4.143-10.588,6.447c-5.033,3.385-9.635,7.314-14.088,11.454c-4.352,4.043-8.302,8.385-11.49,13.372
			c-1.358,2.125-2.517,4.428-2.095,7.187c0.138,0.905-0.094,1.937-0.4,2.826c-1.002,2.912-1.959,5.854-3.216,8.658
			c-3.901,8.697-9.498,16.364-14.953,24.109c-2.041,2.898-4.107,5.779-6.24,8.778c4.976,3.02,9.788,5.843,14.499,8.825
			c4.368,2.766,8.988,5.147,12.848,8.704c2.738,2.522,3.929,5.469,3.645,9.152c-0.282,3.668-1.063,7.225-1.857,10.806
			c-1.026,4.631-2.59,9.034-4.955,13.117c-2.935,5.064-6.53,9.464-12.515,11.163c-2.974,0.844-5.688,0.602-7.97-1.691
			c-0.897-0.901-1.904-1.75-2.591-2.799c-2.782-4.246-5.71-8.425-8.123-12.878c-5.235-9.662-10.178-19.482-15.256-29.23
			c-3.567-6.848-7.113-13.707-10.786-20.498c-0.636-1.177-0.539-1.963,0.039-3.04c1.799-3.361,3.525-6.762,5.221-10.176
			c2.855-5.746,5.653-11.52,8.5-17.27c2.67-5.395,5.429-10.746,8.041-16.169c1.516-3.147,2.723-6.443,4.241-9.589
			c2.267-4.697,5.442-8.802,8.814-12.743c2.204-2.576,4.732-4.669,8.186-5.54c1.477-0.372,2.869-1.317,4.139-2.226
			c3.43-2.454,5.818-5.839,7.991-9.385c0.682-1.114,1.323-2.252,2.091-3.564c-4.1-0.876-7.902-0.735-11.684-0.454
			c-1.229,0.092-2.575,0.521-3.593,1.205c-4.257,2.856-9.04,4.059-13.99,4.863c-6.024,0.979-12.091,1.367-18.186,1.345
			c-5.907-0.022-11.813-0.102-17.72-0.166c-1.457-0.016-2.09,0.499-2.008,1.666c0.442,6.314,0.957,12.625,1.29,18.945
			c0.2,3.785,0.654,7.571,0.039,11.382c-0.563,3.481-1.912,6.514-5.022,8.266c-3.581,2.016-7.241,4.012-11.089,5.403
			c-6.058,2.189-12.287,3.708-18.895,3.198c-4.309-0.333-8.06-1.689-11.31-4.452c-1.68-1.429-2.963-3.256-2.956-5.505
			c0.011-3.118,0.897-6.091,2.126-8.972c1.624-3.806,3.253-7.593,5.224-11.25c2.941-5.458,5.575-11.082,8.403-16.602
			c2.712-5.293,5.511-10.541,8.261-15.814c1.614-3.095,3.186-6.211,4.816-9.297c1.432-2.711,2.963-5.371,4.354-8.104
			c0.416-0.817,0.879-1.146,1.784-1.25c3.874-0.441,7.743-0.927,11.601-1.484c8.414-1.214,16.817-2.495,25.229-3.718
			c2.9-0.422,5.838-0.624,8.716-1.156c4.102-0.758,8.135-1.909,12.25-2.564c6.079-0.968,12.207-0.859,18.307-0.042
			c2.545,0.341,5.044,0.98,7.015,2.736c2.431,2.165,5.313,3.176,8.439,3.646c4.354,0.654,8.714,0.357,13.063-0.089
			c0.691-0.071,1.383-0.375,2.021-0.684c1.431-0.692,2.802-1.508,4.241-2.179c7.476-3.482,15.24-4.564,23.318-2.62
			c1.928,0.464,3.806,1.141,5.699,1.746c4.648,1.482,9.373,2.677,14.276,2.645c6.54-0.042,13.081-0.22,19.616-0.49
			c3.178-0.13,6.344-0.572,9.509-0.936c0.895-0.103,1.855-0.029,2.379-1.196c2.229-4.974,5.945-8.865,9.577-12.801
			c1.554-1.684,1.631-1.673,0.603-3.846c-2.359-4.982-2.892-10.16-2.376-15.635c0.316-3.364,1.778-4.955,4.92-5.724
			c4.813-1.178,9.481-2.845,13.902-5.128c2.357-1.218,4.58-2.651,6.233-4.767c1.473-1.884,1.109-3.948-1.016-5.027
			c-1.471-0.746-3.127-1.181-4.745-1.567c-1.542-0.368-3.168-0.381-4.711-0.749c-2.357-0.562-3.027-1.899-1.981-4.103
			c0.679-1.429,1.554-2.814,2.576-4.021c2.269-2.679,4.655-5.259,7.047-7.831c2.938-3.159,6.021-6.186,8.872-9.42
			c2.748-3.12,5.251-6.464,6.922-10.311c0.561-1.29,0.941-2.726,1.051-4.123c0.125-1.595-0.929-2.504-2.524-2.515
			c-0.547-0.004-1.131,0.074-1.636,0.271c-1.928,0.751-3.853,1.517-5.734,2.373c-1.378,0.627-2.641,1.514-4.035,2.09
			c-2.059,0.851-2.986,0.246-2.766-1.915c0.177-1.725,0.622-3.458,1.2-5.099c1.405-3.99,3.03-7.902,4.428-11.895
			c1.084-3.097,1.657-6.296,1.716-9.619c0.115-6.549-2.906-11.146-8.52-14.149c-4.358-2.331-9.15-3.205-14-3.852
			c-5.487-0.732-9.505,1.427-12.21,6.117c-1.354,2.349-2.57,4.784-3.745,7.23c-4.35,9.055-9.611,17.49-16.538,24.829
			c-2.491,2.641-4.54,5.545-5.312,9.216c-0.393,1.866-0.01,3.411,1.083,4.947c1.198,1.686,2.335,3.44,3.285,5.275
			c4.497,8.683,7.755,17.867,10.681,27.167c1.218,3.871,2.257,7.81,3.128,11.773c0.823,3.746,0.34,7.471-1.051,11.053
			c-0.163,0.42-0.52,0.766-0.984,1.427c-0.174-4.498-2.057-6.392-5.75-6.195c-0.896,4.087-1.367,8.328-4.061,12.155
			c-0.031-5.445-2.635-9.33-5.62-13.103c1.274,4.114,1.451,8.15,0.038,12.244c-1.745,5.056-4.446,9.233-6.924,10.09
			c0.173-0.89,0.201-1.691,0.486-2.387c0.915-2.239,0.648-4.355-0.393-6.464c-1.552-3.143-3.85-5.649-6.498-7.894
			c-3.419-2.897-6.914-5.681-10.961-7.666c-4.833-2.371-10.085-3.009-15.343-3.272c-6.936-0.348-13.889-0.41-20.835-0.51
			c-5.062-0.074-10.031-0.786-14.881-2.152c-8.162-2.299-14.958-6.66-20.012-13.612c-5.083-6.991-7.875-14.929-9.826-23.222
			c-3.287-13.966-4.085-28.222-4.672-42.482c-0.273-6.628-0.167-13.272-0.193-19.909c-0.042-10.7,0.27-21.412-0.818-32.081
			c-0.598-5.864-1.261-11.725-2.083-17.56c-0.399-2.831-0.856-5.811-2.699-8.1c-2.146-2.666-2.834-5.657-2.873-8.907
			c-0.053-4.308,1.075-8.362,2.824-12.262c1.315-2.932,2.446-5.902,2.32-9.198c-0.131-3.422-0.251-6.846-0.35-10.269
			c-0.224-7.822-0.412-15.646-0.656-23.467c-0.097-3.108-0.271-6.214-0.477-9.317c-0.124-1.871-0.525-2.305-2.337-2.815
			c-0.61-0.172-1.257-0.325-1.884-0.313c-5.029,0.102-9.299-2.03-13.405-4.573c-5.866-3.632-11.097-8.061-15.939-12.961
			c-6.144-6.219-11.774-12.848-15.934-20.589c-1.78-3.313-3.283-6.769-3.293-10.65c-0.005-1.859,0.307-2.432,2.114-2.498
			c2.216-0.082,4.491,0.011,6.663,0.431c9.941,1.925,19.401,5.284,28.422,9.887c3.517,1.794,6.682,4.042,9.372,6.951
			c0.756,0.818,1.57,1.598,2.439,2.293c0.5,0.4,1.164,0.597,2.017,1.014c0-2.243,0.063-4.075-0.011-5.902
			c-0.288-7.092-0.641-14.182-0.928-21.274c-0.344-8.53-0.648-17.062-0.964-25.593c-0.166-4.465-0.364-8.93-0.471-13.396
			c-0.194-8.065-0.388-16.13-0.467-24.197c-0.038-3.828,0.184-7.657,0.295-11.486c0.155-5.345,0.318-10.691,0.476-16.037
			c0.252-8.539,1.165-17.013,2.496-25.446c2.247-14.233,6.483-27.788,13.481-40.454c5.836-10.562,13.119-19.831,23.016-26.896
			c5.157-3.682,10.516-6.984,16.568-9.016c1.191-0.4,2.374-0.825,3.561-1.238c1.761,0,3.521,0,5.28,0
			c0.188,0.133,0.363,0.295,0.568,0.395c2.69,1.315,3.162,2.293,2.379,5.107c-0.191,0.687-0.47,1.355-0.766,2.006
			c-1.706,3.756-4.181,6.981-7.024,9.928c-3.843,3.983-7.228,8.31-10.103,13.042c-7.949,13.081-13.366,27.198-17.182,41.968
			c-2.563,9.918-4.253,19.979-4.229,30.242c0.013,5.495,0.426,10.992,0.764,16.481c0.304,4.932,0.537,9.883,1.181,14.776
			c1.404,10.663,2.87,21.324,4.67,31.925c0.944,5.564,2.599,11.013,4.038,16.486c0.31,1.18,1.069,2.241,1.658,3.43
			c1.661-0.864,2.021-2.265,2.339-3.515c1.399-5.484,2.983-10.948,3.917-16.517c1.804-10.765,3.186-21.6,4.796-32.397
			c1.86-12.476,4.258-24.846,7.676-36.997c4.353-15.473,10.41-30.173,19.721-43.407c5.632-8.005,12.015-15.369,19.282-21.883
			c13.318-11.937,28.496-20.709,45.664-25.956c7.675-2.345,15.513-3.767,23.506-3.999c4.036-0.117,8.135,0.307,12.135,0.938
			c3.685,0.582,7.287,1.718,10.898,2.713c1.285,0.354,2.573,0.9,3.124,2.356c-0.695,1.476-2.019,2.068-3.398,2.469
			c-3.445,1-6.917,1.909-10.376,2.862c-3.84,1.059-7.776,1.861-11.495,3.247c-7.302,2.723-13.913,6.787-20.221,11.332
			c-9.162,6.602-17.582,14.035-25.276,22.319c-6.651,7.159-12.771,14.708-18.014,22.958c-10.146,15.965-14.898,33.419-14.375,52.309
			c0.086,3.125,0.516,6.232,2.229,8.955c1.384,2.2,3.097,2.518,5.277,1.11c0.779-0.503,1.509-1.082,2.305-1.659
			c0.526,1.809,0.603,1.852,0.106,3.326c-0.814,2.417-1.646,4.837-2.636,7.187c-2.354,5.59-4.977,11.072-7.165,16.724
			c-2.164,5.587-3.674,11.356-3.03,17.487c0.854,8.136,5.445,13.98,11.514,18.883c1.721,1.39,3.311,0.956,4.384-0.988
			c0.805-1.457,1.503-3.022,1.936-4.624c1.109-4.11,3.174-7.694,5.954-10.82c3.549-3.99,7.201-7.9,10.987-11.665
			c5.676-5.645,11.909-10.64,18.6-15.042c2.803-1.845,5.683-3.544,8.996-4.399c1.55-0.4,2.618,0.038,3.534,1.251
			c1.72,2.278,2.805,4.833,3.292,7.626c0.94,5.395,0.851,10.815,0.099,16.216c-1.988,14.292-6.742,27.565-14.867,39.548
			c-3.459,5.102-7.676,9.384-13.453,11.914c-1.077,0.472-2.09,1.19-2.977,1.972c-1.288,1.136-1.247,2.062,0.114,3.174
			c0.789,0.646,1.706,1.25,2.667,1.553c3.571,1.126,7.166,2.194,10.787,3.15c11.507,3.038,22.845,6.609,34.065,10.571
			c20.301,7.168,39.886,15.958,58.843,26.129c20.457,10.976,39.862,23.601,58.248,37.784c13.418,10.351,26.188,21.449,38.287,33.312
			c8.959,8.784,17.482,17.977,25.636,27.517c12.634,14.781,24.166,30.376,34.681,46.726c11.907,18.514,22.229,37.883,31.145,58.001
			c6.606,14.905,12.281,30.164,17.1,45.741c3.8,12.281,7.208,24.668,9.701,37.285c1.7,8.603,3.302,17.229,4.695,25.886
			c1.102,6.838,1.949,13.725,2.668,20.615c0.678,6.496,1.212,13.017,1.492,19.541c0.284,6.627,0.172,13.271,0.263,19.907
			C1136.063,708.798,1136.279,709.479,1136.399,710.159z"/>
		<path fill-rule="evenodd" clip-rule="evenodd" fill="#FFFFFF" d="M739.439,63.6c-1.187,0.413-2.369,0.838-3.561,1.238
			c-6.053,2.032-11.411,5.333-16.568,9.016c-9.896,7.065-17.179,16.334-23.016,26.896c-6.999,12.666-11.235,26.22-13.481,40.454
			c-1.331,8.433-2.244,16.907-2.496,25.446c-0.158,5.346-0.32,10.691-0.476,16.037c-0.111,3.829-0.333,7.659-0.295,11.486
			c0.079,8.066,0.272,16.132,0.467,24.197c0.107,4.467,0.305,8.931,0.471,13.396c0.316,8.531,0.62,17.063,0.964,25.593
			c0.287,7.092,0.64,14.182,0.928,21.274c0.074,1.827,0.011,3.659,0.011,5.902c-0.854-0.417-1.517-0.614-2.017-1.014
			c-0.869-0.695-1.683-1.475-2.439-2.293c-2.69-2.909-5.855-5.156-9.372-6.951c-9.021-4.603-18.481-7.961-28.422-9.887
			c-2.172-0.42-4.447-0.513-6.663-0.431c-1.807,0.066-2.119,0.639-2.114,2.498c0.01,3.881,1.513,7.337,3.293,10.65
			c4.16,7.741,9.79,14.37,15.934,20.589c4.842,4.901,10.073,9.33,15.939,12.961c4.106,2.542,8.376,4.674,13.405,4.573
			c0.626-0.013,1.273,0.14,1.884,0.313c1.812,0.51,2.213,0.944,2.337,2.815c0.206,3.103,0.38,6.209,0.477,9.317
			c0.245,7.821,0.432,15.645,0.656,23.467c0.098,3.423,0.219,6.846,0.35,10.269c0.126,3.296-1.005,6.267-2.32,9.198
			c-1.749,3.899-2.876,7.954-2.824,12.262c0.039,3.25,0.727,6.241,2.873,8.907c1.843,2.29,2.3,5.27,2.699,8.1
			c0.823,5.835,1.486,11.696,2.083,17.56c1.088,10.669,0.776,21.381,0.818,32.081c0.026,6.637-0.08,13.281,0.193,19.909
			c0.587,14.261,1.385,28.516,4.672,42.482c1.951,8.292,4.744,16.231,9.826,23.222c5.054,6.952,11.85,11.313,20.012,13.612
			c4.85,1.366,9.819,2.078,14.881,2.152c6.946,0.101,13.899,0.163,20.835,0.51c5.258,0.264,10.51,0.901,15.343,3.272
			c4.047,1.985,7.542,4.769,10.961,7.666c2.648,2.245,4.946,4.751,6.498,7.894c1.041,2.108,1.308,4.225,0.393,6.464
			c-0.285,0.696-0.313,1.497-0.486,2.387c2.478-0.856,5.179-5.034,6.924-10.09c1.413-4.093,1.236-8.129-0.038-12.244
			c2.985,3.773,5.589,7.658,5.62,13.103c2.693-3.827,3.165-8.068,4.061-12.155c3.693-0.197,5.576,1.697,5.75,6.195
			c0.465-0.662,0.821-1.007,0.984-1.427c1.391-3.582,1.874-7.307,1.051-11.053c-0.871-3.963-1.91-7.903-3.128-11.773
			c-2.926-9.3-6.184-18.484-10.681-27.167c-0.95-1.835-2.087-3.589-3.285-5.275c-1.093-1.536-1.476-3.082-1.083-4.947
			c0.771-3.67,2.82-6.575,5.312-9.216c6.927-7.339,12.188-15.774,16.538-24.829c1.175-2.446,2.391-4.881,3.745-7.23
			c2.705-4.69,6.723-6.849,12.21-6.117c4.85,0.647,9.642,1.521,14,3.852c5.613,3.003,8.635,7.6,8.52,14.149
			c-0.059,3.323-0.632,6.522-1.716,9.619c-1.397,3.993-3.022,7.905-4.428,11.895c-0.578,1.641-1.023,3.374-1.2,5.099
			c-0.221,2.16,0.707,2.766,2.766,1.915c1.395-0.577,2.657-1.463,4.035-2.09c1.882-0.856,3.807-1.622,5.734-2.373
			c0.505-0.197,1.089-0.275,1.636-0.271c1.596,0.011,2.649,0.92,2.524,2.515c-0.109,1.397-0.49,2.833-1.051,4.123
			c-1.671,3.847-4.174,7.191-6.922,10.311c-2.851,3.234-5.935,6.261-8.872,9.42c-2.392,2.572-4.778,5.152-7.047,7.831
			c-1.022,1.207-1.897,2.592-2.576,4.021c-1.046,2.203-0.376,3.541,1.981,4.103c1.543,0.368,3.169,0.381,4.711,0.749
			c1.618,0.386,3.274,0.821,4.745,1.567c2.125,1.079,2.488,3.143,1.016,5.027c-1.653,2.116-3.876,3.549-6.233,4.767
			c-4.421,2.283-9.089,3.95-13.902,5.128c-3.142,0.769-4.604,2.359-4.92,5.724c-0.516,5.476,0.017,10.653,2.376,15.635
			c1.028,2.173,0.951,2.163-0.603,3.846c-3.632,3.936-7.348,7.827-9.577,12.801c-0.523,1.167-1.484,1.094-2.379,1.196
			c-3.165,0.364-6.331,0.805-9.509,0.936c-6.535,0.27-13.076,0.447-19.616,0.49c-4.903,0.032-9.628-1.163-14.276-2.645
			c-1.894-0.604-3.771-1.281-5.699-1.746c-8.078-1.944-15.843-0.862-23.318,2.62c-1.439,0.671-2.811,1.487-4.241,2.179
			c-0.638,0.309-1.329,0.612-2.021,0.684c-4.349,0.446-8.708,0.743-13.063,0.089c-3.126-0.47-6.009-1.481-8.439-3.646
			c-1.971-1.755-4.47-2.395-7.015-2.736c-6.101-0.817-12.229-0.926-18.307,0.042c-4.115,0.655-8.148,1.806-12.25,2.564
			c-2.878,0.532-5.815,0.734-8.716,1.156c-8.412,1.223-16.815,2.504-25.229,3.718c-3.858,0.557-7.728,1.043-11.601,1.484
			c-0.904,0.103-1.368,0.433-1.784,1.25c-1.39,2.732-2.921,5.392-4.354,8.104c-1.63,3.086-3.202,6.203-4.816,9.297
			c-2.75,5.273-5.549,10.521-8.261,15.814c-2.829,5.521-5.462,11.144-8.403,16.602c-1.971,3.657-3.6,7.444-5.224,11.25
			c-1.229,2.881-2.116,5.854-2.126,8.972c-0.007,2.249,1.276,4.076,2.956,5.505c3.25,2.763,7.001,4.118,11.31,4.452
			c6.608,0.511,12.836-1.009,18.895-3.198c3.848-1.391,7.508-3.387,11.089-5.403c3.11-1.752,4.459-4.785,5.022-8.266
			c0.615-3.811,0.161-7.597-0.039-11.382c-0.333-6.32-0.848-12.631-1.29-18.945c-0.082-1.167,0.551-1.681,2.008-1.666
			c5.906,0.063,11.813,0.144,17.72,0.166c6.095,0.022,12.162-0.366,18.186-1.345c4.951-0.805,9.733-2.007,13.99-4.863
			c1.019-0.684,2.364-1.113,3.593-1.205c3.782-0.282,7.584-0.423,11.684,0.454c-0.768,1.312-1.409,2.451-2.091,3.564
			c-2.173,3.546-4.562,6.931-7.991,9.385c-1.27,0.909-2.662,1.854-4.139,2.226c-3.453,0.871-5.981,2.964-8.186,5.54
			c-3.373,3.941-6.548,8.046-8.814,12.743c-1.519,3.146-2.726,6.442-4.241,9.589c-2.612,5.423-5.37,10.774-8.041,16.169
			c-2.847,5.75-5.645,11.524-8.5,17.27c-1.696,3.414-3.422,6.815-5.221,10.176c-0.577,1.077-0.675,1.863-0.039,3.04
			c3.673,6.791,7.218,13.65,10.786,20.498c5.078,9.748,10.021,19.568,15.256,29.23c2.413,4.453,5.341,8.632,8.123,12.878
			c0.688,1.049,1.694,1.897,2.591,2.799c2.282,2.293,4.996,2.535,7.97,1.691c5.985-1.699,9.581-6.099,12.515-11.163
			c2.365-4.083,3.929-8.486,4.955-13.117c0.794-3.581,1.575-7.138,1.857-10.806c0.284-3.684-0.906-6.63-3.645-9.152
			c-3.859-3.557-8.479-5.938-12.848-8.704c-4.711-2.982-9.523-5.806-14.499-8.825c2.133-2.999,4.199-5.88,6.24-8.778
			c5.455-7.745,11.051-15.412,14.953-24.109c1.257-2.804,2.214-5.747,3.216-8.658c0.307-0.89,0.538-1.921,0.4-2.826
			c-0.422-2.759,0.736-5.061,2.095-7.187c3.188-4.987,7.139-9.329,11.49-13.372c4.453-4.139,9.055-8.068,14.088-11.454
			c3.426-2.304,7.036-4.335,10.588-6.447c0.531-0.315,1.253-0.667,1.791-0.553c2.645,0.559,5.554,0.736,7.836,2.006
			c24.94,13.889,49.781,27.958,74.647,41.981c0.341,0.192,0.652,0.438,0.932,0.628c-2.217,2.143-4.469,4.173-6.534,6.378
			c-1.075,1.147-1.987,2.522-2.681,3.938c-1.346,2.747-0.563,4.93,2.143,6.431c1.186,0.658,2.496,1.097,3.654,1.794
			c1.424,0.859,2.849,1.77,4.089,2.867c1.542,1.364,1.818,3.148,0.9,5.021c-0.702,1.433-1.505,2.815-2.225,4.239
			c-1.742,3.447-0.944,5.817,2.582,7.381c2.816,1.249,5.85,1.509,8.89,1.666c6.498,0.337,12.92-0.339,19.318-1.388
			c1.797-0.295,1.807-0.236,2.496,1.329c-1.829,0.765-2.164,2.415-2.499,4.179c-1.311,6.89-4.879,12.779-8.442,18.662
			c-6.266,10.346-13.739,19.824-21.073,29.404c-3.015,3.938-5.866,7.989-8.047,12.468c-0.349,0.716-0.661,1.455-0.935,2.203
			c-1.394,3.814-0.803,7.232,2.129,10.133c1.39,1.375,2.429,2.947,3.044,4.809c1.141,3.455,0.21,6.437-2.049,9.12
			c-0.642,0.762-1.38,1.313-2.477,1.15c-0.47-0.07-0.959-0.011-1.438-0.011c-45.36,0-90.72-0.016-136.079,0.045
			c-2.355,0.003-3.797-0.625-4.969-2.778c-2.596-4.768-5.542-9.343-8.243-14.055c-1.121-1.955-2.621-2.67-4.863-2.786
			c-7.002-0.362-14.004-0.833-20.983-1.502c-8.838-0.848-17.684-1.024-26.552-1.021c-60.16,0.031-120.319-0.014-180.479,0.067
			c-5.519,0.007-10.511-1.198-15.346-3.813c-6.027-3.261-11.506-7.163-16.299-12.068c-4.64-4.749-9.307-9.476-14.102-14.067
			c-2.605-2.495-5.189-4.972-7.186-7.994c-3.304-5.001-5.007-10.505-4.947-16.496c0.028-2.784,0.166-5.589,0.553-8.343
			c0.493-3.507,2.703-5.548,6.258-5.874c4.203-0.385,8.42-0.706,12.638-0.805c7.114-0.167,14.233-0.104,21.35-0.199
			c9.666-0.128,19.349,0.001,28.992-0.547c13.815-0.784,27.628-0.677,41.446-0.731c5.037-0.021,10.074-0.092,15.11-0.155
			c12.226-0.154,24.451-0.335,36.677-0.469c4.793-0.053,9.592,0.116,14.379-0.05c3.577-0.124,7.169-0.443,10.703-1.001
			c5.108-0.808,7.355-3.542,7.188-8.77c-0.143-4.456-0.576-8.906-0.995-13.349c-0.523-5.55-1.17-11.089-1.753-16.634
			c-0.932-8.873-1.865-17.746-2.779-26.621c-0.555-5.391-1.096-10.783-1.608-16.177c-0.986-10.39-1.891-20.789-2.933-31.173
			c-1.049-10.463-2.244-20.912-3.338-31.371c-0.986-9.429-1.911-18.864-2.888-28.293c-1.108-10.698-2.198-21.398-3.379-32.088
			c-1.216-11.006-2.548-22-3.799-33.003c-0.63-5.539-1.208-11.084-1.779-16.63c-0.468-4.534-3.209-7.497-8.372-7.232
			c-3.817,0.196-7.624,0.58-11.439,0.814c-3.98,0.244-7.969,0.346-11.946,0.627c-4.845,0.342-9.681,0.813-14.522,1.217
			c-4.687,0.392-9.374,0.768-14.061,1.154c-5.16,0.424-10.316,0.888-15.479,1.265c-3.658,0.267-7.328,0.378-10.987,0.629
			c-6.439,0.441-12.876,0.926-19.313,1.412c-8.661,0.654-17.321,1.321-25.981,1.992c-8.182,0.634-16.369,1.22-24.544,1.934
			c-10.317,0.901-20.625,1.916-30.937,2.874c-5.235,0.486-10.468,1.003-15.71,1.398c-1.483,0.112-2.298,0.857-2.997,2.011
			c-5.584,9.225-11.426,18.303-16.725,27.688c-8.963,15.874-16.684,32.366-23.41,49.317c-7.285,18.357-13.278,37.13-17.985,56.306
			c-3.234,13.176-5.853,26.483-7.717,39.922c-1.029,7.417-1.886,14.865-2.547,22.323c-0.667,7.54-1.043,15.107-1.458,22.667
			c-0.244,4.455-0.303,8.919-0.481,13.378c-0.021,0.516-0.272,1.023-0.416,1.535c0-214.993,0-429.986,0-645.12
			C435.44,63.6,587.44,63.6,739.439,63.6z"/>
		<path fill-rule="evenodd" clip-rule="evenodd" fill="#FFFFFF" d="M1136.399,710.159c-0.12-0.681-0.337-1.361-0.347-2.044
			c-0.091-6.636,0.021-13.28-0.263-19.907c-0.28-6.524-0.814-13.045-1.492-19.541c-0.719-6.89-1.566-13.776-2.668-20.615
			c-1.394-8.657-2.995-17.284-4.695-25.886c-2.493-12.616-5.901-25.003-9.701-37.285c-4.818-15.577-10.493-30.836-17.1-45.741
			c-8.916-20.118-19.237-39.487-31.145-58.001c-10.515-16.35-22.047-31.945-34.681-46.726c-8.153-9.541-16.677-18.733-25.636-27.517
			c-12.099-11.863-24.869-22.961-38.287-33.312C952,359.401,932.595,346.776,912.138,335.8
			c-18.957-10.171-38.542-18.961-58.843-26.129c-11.221-3.962-22.559-7.534-34.065-10.571c-3.621-0.956-7.216-2.024-10.787-3.15
			c-0.961-0.303-1.878-0.908-2.667-1.553c-1.361-1.112-1.402-2.038-0.114-3.174c0.887-0.782,1.899-1.5,2.977-1.972
			c5.777-2.53,9.994-6.812,13.453-11.914c8.125-11.983,12.879-25.256,14.867-39.548c0.752-5.4,0.842-10.821-0.099-16.216
			c-0.487-2.793-1.572-5.348-3.292-7.626c-0.916-1.213-1.984-1.651-3.534-1.251c-3.313,0.854-6.193,2.554-8.996,4.399
			c-6.69,4.403-12.924,9.397-18.6,15.042c-3.786,3.765-7.438,7.675-10.987,11.665c-2.78,3.126-4.845,6.71-5.954,10.82
			c-0.433,1.602-1.131,3.167-1.936,4.624c-1.073,1.944-2.663,2.378-4.384,0.988c-6.068-4.902-10.659-10.747-11.514-18.883
			c-0.644-6.131,0.866-11.9,3.03-17.487c2.188-5.652,4.812-11.134,7.165-16.724c0.989-2.35,1.821-4.77,2.636-7.187
			c0.496-1.474,0.42-1.517-0.106-3.326c-0.796,0.577-1.525,1.156-2.305,1.659c-2.181,1.408-3.894,1.09-5.277-1.11
			c-1.714-2.722-2.144-5.829-2.229-8.955c-0.523-18.89,4.229-36.344,14.375-52.309c5.242-8.25,11.362-15.799,18.014-22.958
			c7.694-8.285,16.114-15.717,25.276-22.319c6.308-4.545,12.919-8.609,20.221-11.332c3.719-1.386,7.655-2.188,11.495-3.247
			c3.459-0.953,6.931-1.862,10.376-2.862c1.38-0.4,2.703-0.993,3.398-2.469c-0.551-1.457-1.839-2.002-3.124-2.356
			c-3.611-0.995-7.214-2.132-10.898-2.713c-4-0.631-8.099-1.056-12.135-0.938c-7.993,0.232-15.831,1.653-23.506,3.999
			c-17.168,5.246-32.346,14.019-45.664,25.956c-7.268,6.514-13.65,13.878-19.282,21.883c-9.311,13.234-15.368,27.935-19.721,43.407
			c-3.418,12.151-5.815,24.521-7.676,36.997c-1.61,10.798-2.992,21.633-4.796,32.397c-0.934,5.569-2.518,11.033-3.917,16.517
			c-0.318,1.25-0.678,2.65-2.339,3.515c-0.589-1.189-1.349-2.25-1.658-3.43c-1.439-5.474-3.094-10.922-4.038-16.486
			c-1.8-10.602-3.266-21.263-4.67-31.925c-0.644-4.893-0.877-9.844-1.181-14.776c-0.338-5.489-0.75-10.986-0.764-16.481
			c-0.024-10.263,1.667-20.324,4.229-30.242c3.815-14.77,9.232-28.887,17.182-41.968c2.875-4.732,6.26-9.059,10.103-13.042
			c2.844-2.947,5.318-6.172,7.024-9.928c0.296-0.651,0.574-1.32,0.766-2.006c0.783-2.814,0.312-3.792-2.379-5.107
			c-0.205-0.1-0.38-0.261-0.568-0.395c130.53,0,261.06,0,391.68,0C1136.399,279.12,1136.399,494.64,1136.399,710.159z"/>
		<path fill-rule="evenodd" clip-rule="evenodd" fill="#FFFFFF" d="M283.44,711.119c0.301,1.284,0.605,2.566,0.902,3.852
			c0.072,0.311,0.09,0.638,0.186,0.94c1.466,4.646,2.936,6.844,9.125,7.086c3.259,0.128,6.534-0.234,9.802-0.267
			c8.955-0.088,17.91-0.094,26.864-0.185c3.077-0.03,6.013,0.625,8.94,1.458c1.827,0.521,2.874,1.702,3.127,3.528
			c0.24,1.732,0.407,3.482,0.48,5.23c0.192,4.543,0.19,9.097,0.496,13.631c0.5,7.399,4.009,13.307,9.344,18.308
			c4.896,4.591,9.662,9.318,14.494,13.977c0.688,0.663,1.342,1.432,2.161,1.876c2.385,1.293,2.948,3.421,2.939,5.857
			c-0.004,1.117-0.086,2.234-0.143,3.351c-0.086,1.68-0.257,1.882-2.016,1.908c-5.035,0.077-10.071,0.105-15.107,0.172
			c-7.427,0.098-14.854,0.205-22.281,0.324c-1.984,0.032-2.149,0.07-2.401,2.142c-0.404,3.317-0.621,6.658-0.896,9.99
			c-0.184,2.223-0.317,4.451-0.503,6.674c-0.165,1.975-0.501,2.299-2.533,2.302c-8.958,0.015-17.916,0.007-26.874,0.007
			c-0.862,0-1.724,0-2.879,0c0.697,2.697,1.292,5.084,1.932,7.459c6.333,23.485,14.579,46.283,24.827,68.34
			c10.729,23.092,23.391,45.076,38.052,65.912c8.788,12.487,18.21,24.467,28.264,35.949c4.048,4.623,8.291,9.078,12.503,13.555
			c3.011,3.2,6.056,6.375,9.196,9.447c12.053,11.79,24.718,22.885,38.069,33.188c18.125,13.986,37.235,26.458,57.361,37.379
			c24.077,13.064,49.172,23.734,75.291,31.968c18.816,5.932,37.957,10.564,57.436,13.768c9.753,1.603,19.521,3.071,29.38,3.842
			c6.433,0.503,12.863,1.08,19.306,1.397c6.457,0.318,12.927,0.347,19.391,0.53c0.512,0.015,1.019,0.251,1.528,0.385
			c-141.92,0-283.84,0-425.76,0C283.44,994.64,283.44,852.88,283.44,711.119z"/>
		<path fill-rule="evenodd" clip-rule="evenodd" fill="#FFFFFF" d="M711.12,1136.399c0.669-0.134,1.337-0.373,2.008-0.384
			c5.115-0.084,10.238,0.016,15.347-0.214c5.727-0.257,11.443-0.753,17.158-1.23c5.08-0.425,10.159-0.888,15.223-1.469
			c14.588-1.675,29.031-4.221,43.352-7.458c27.336-6.18,53.814-14.976,79.4-26.397c17.376-7.758,34.191-16.604,50.378-26.639
			c15.163-9.4,29.799-19.549,43.578-30.877c7.765-6.383,15.303-13.051,22.779-19.771c4.93-4.432,9.686-9.071,14.315-13.815
			c14.634-14.994,28.151-30.937,40.444-47.915c10.51-14.515,20.133-29.593,28.732-45.311c7.211-13.181,13.751-26.691,19.537-40.563
			c7.264-17.413,13.148-35.282,18.357-53.415c4.261-14.831,7.328-29.887,9.714-45.09c1.345-8.572,2.125-17.234,3.113-25.862
			c1.348-11.758,1.548-23.566,1.498-35.386c-0.004-0.84,0.225-1.682,0.345-2.523c0,141.44,0,282.88,0,424.32
			C994.64,1136.399,852.88,1136.399,711.12,1136.399z"/>
	</g>
</g>
</svg>
